<svg width="65" height="66" viewBox="0 0 65 66" fill="none" xmlns="http://www.w3.org/2000/svg">
<g id="Play">
<g id="Icon">
<g id="Fill 1" filter="url(#filter0_b_726_2)">
<path d="M64.5 33C64.5 50.6736 50.1736 65 32.5 65C14.8264 65 0.5 50.6736 0.5 33C0.5 15.3296 14.8264 1 32.5 1C50.1736 1 64.5 15.3296 64.5 33Z" fill="url(#paint0_linear_726_2)"/>
<path d="M32.5 65.1367C50.2491 65.1367 64.6367 50.7491 64.6367 33C64.6367 15.2541 50.2491 0.863265 32.5 0.863265C14.7509 0.863265 0.363265 15.2541 0.363265 33C0.363265 50.7491 14.7509 65.1367 32.5 65.1367Z" stroke="url(#paint1_linear_726_2)" stroke-width="0.27347" stroke-linecap="round" stroke-linejoin="round"/>
</g>
<g id="Fill 5" filter="url(#filter1_b_726_2)">
<path d="M44.8735 32.1612C44.8735 32.916 44.6359 33.6738 44.1607 34.2805C44.0716 34.3996 43.6559 34.8902 43.3292 35.2096L43.151 35.3837C40.6565 38.0286 34.4498 42.0059 31.3019 43.2805C31.3019 43.3095 29.431 44.0672 28.5401 44.0933H28.4213C27.0553 44.0933 25.7783 43.3414 25.125 42.1221C24.7686 41.4514 24.4419 39.5063 24.4123 39.4802C24.145 37.7353 23.9668 35.0644 23.9668 32.1322C23.9668 29.0577 24.145 26.2677 24.4716 24.5548C24.4716 24.5258 24.7983 22.9581 25.0062 22.4355C25.3329 21.6835 25.9268 21.0419 26.6692 20.6355C27.2632 20.3481 27.8868 20.2 28.5401 20.2C29.2232 20.2319 30.5001 20.6645 31.005 20.8677C34.331 22.1452 40.6862 26.3258 43.1213 28.8806C43.5371 29.287 43.9826 29.7835 44.1013 29.8967C44.6062 30.5354 44.8735 31.3193 44.8735 32.1612Z" fill="url(#paint2_linear_726_2)"/>
<path d="M44.1177 34.2468L44.117 34.2478C44.0296 34.3645 43.6157 34.853 43.291 35.1704L43.1128 35.3446L43.1128 35.3446L43.1113 35.3462C41.8684 36.6639 39.6974 38.3166 37.4414 39.8003C35.1857 41.2837 32.8505 42.5945 31.2814 43.2298L31.2473 43.2436V43.2497C31.235 43.2557 31.2184 43.2634 31.1976 43.2727C31.1456 43.2958 31.0697 43.3276 30.9754 43.3652C30.787 43.4404 30.5262 43.5383 30.2376 43.6362C29.6583 43.8326 28.9755 44.0257 28.5393 44.0387H28.4213C27.0753 44.0387 25.817 43.2977 25.1733 42.0964C24.9991 41.7687 24.8298 41.1224 24.6995 40.5473C24.6347 40.2614 24.58 39.9954 24.5397 39.7989L24.5396 39.7987L24.5396 39.7986C24.5194 39.7005 24.5028 39.6194 24.4902 39.562C24.484 39.5334 24.4786 39.51 24.4742 39.493C24.472 39.4847 24.4699 39.477 24.4677 39.4707C24.467 39.4685 24.4661 39.466 24.465 39.4633C24.199 37.7219 24.0215 35.0579 24.0215 32.1322C24.0215 29.0587 24.1997 26.2728 24.5254 24.5651L24.5263 24.5652V24.5579C24.5264 24.5575 24.5265 24.557 24.5266 24.5565L24.5291 24.5419C24.5315 24.5291 24.5351 24.5108 24.5397 24.4876C24.549 24.4412 24.5625 24.3758 24.5794 24.2963C24.6132 24.1374 24.6605 23.9227 24.7142 23.6927C24.822 23.2314 24.9546 22.7135 25.0567 22.4565C25.3782 21.7169 25.9629 21.0849 26.6943 20.6841C27.2803 20.4007 27.895 20.2549 28.5388 20.2547C28.8732 20.2706 29.3571 20.3849 29.8239 20.5221C30.2901 20.6592 30.7339 20.8176 30.9846 20.9185L30.9846 20.9185L30.9854 20.9188C32.6429 21.5554 35.0593 22.9173 37.3671 24.4408C39.6751 25.9643 41.8685 27.6455 43.0818 28.9183L43.0817 28.9183L43.0831 28.9197C43.2901 29.1221 43.5048 29.3471 43.6829 29.5361C43.7261 29.582 43.7673 29.6258 43.8058 29.6668C43.9224 29.791 44.0139 29.8885 44.0608 29.9336C44.5562 30.5617 44.8188 31.3324 44.8188 32.1612C44.8188 32.9048 44.5847 33.6505 44.1177 34.2468Z" stroke="url(#paint3_linear_726_2)" stroke-width="0.109388"/>
</g>
</g>
</g>
<defs>
<filter id="filter0_b_726_2" x="-1.08883" y="-0.588856" width="67.1777" height="67.1777" filterUnits="userSpaceOnUse" color-interpolation-filters="sRGB">
<feFlood flood-opacity="0" result="BackgroundImageFix"/>
<feGaussianBlur in="BackgroundImageFix" stdDeviation="0.657694"/>
<feComposite in2="SourceAlpha" operator="in" result="effect1_backgroundBlur_726_2"/>
<feBlend mode="normal" in="SourceGraphic" in2="effect1_backgroundBlur_726_2" result="shape"/>
</filter>
<filter id="filter1_b_726_2" x="19.8648" y="16.098" width="29.1108" height="32.0974" filterUnits="userSpaceOnUse" color-interpolation-filters="sRGB">
<feFlood flood-opacity="0" result="BackgroundImageFix"/>
<feGaussianBlur in="BackgroundImageFix" stdDeviation="2.05102"/>
<feComposite in2="SourceAlpha" operator="in" result="effect1_backgroundBlur_726_2"/>
<feBlend mode="normal" in="SourceGraphic" in2="effect1_backgroundBlur_726_2" result="shape"/>
</filter>
<linearGradient id="paint0_linear_726_2" x1="37.2117" y1="37.2857" x2="-19.0245" y2="64.629" gradientUnits="userSpaceOnUse">
<stop stop-color="#FF8F71"/>
<stop offset="1" stop-color="#EF2D1A"/>
</linearGradient>
<linearGradient id="paint1_linear_726_2" x1="10.6878" y1="8.45608" x2="51.5129" y2="59.0191" gradientUnits="userSpaceOnUse">
<stop stop-color="white" stop-opacity="0.25"/>
<stop offset="1" stop-color="white" stop-opacity="0"/>
</linearGradient>
<linearGradient id="paint2_linear_726_2" x1="43.3912" y1="24.5147" x2="20.0974" y2="25.1792" gradientUnits="userSpaceOnUse">
<stop stop-color="white"/>
<stop offset="1" stop-color="white" stop-opacity="0.2"/>
</linearGradient>
<linearGradient id="paint3_linear_726_2" x1="27.2948" y1="22.9836" x2="42.836" y2="39.8258" gradientUnits="userSpaceOnUse">
<stop stop-color="white" stop-opacity="0.25"/>
<stop offset="1" stop-color="white" stop-opacity="0"/>
</linearGradient>
</defs>
</svg>
